<?xml version="1.0" encoding="utf-8"?>
<!-- Generator: Adobe Illustrator 24.0.2, SVG Export Plug-In . SVG Version: 6.00 Build 0)  -->
<svg version="1.1" id="Ebene_1" xmlns="http://www.w3.org/2000/svg" xmlns:xlink="http://www.w3.org/1999/xlink" x="0px" y="0px"
	 viewBox="0 0 595.28 841.89" style="enable-background:new 0 0 595.28 841.89;" xml:space="preserve">
<style type="text/css">
	.st0{fill:#E32933;}
	.st1{fill:#6DC5D7;}
	.st2{fill:#313886;}
</style>
<g>
	<path class="st0" d="M125.45,420.2c-5.32-5.42-12.79-8.73-22.42-9.93l25.36-25.38v-22.47H52.16v24.68H95.5l-22.87,23.18v17.46h9.03
		c1.33,0,2.58,0.03,3.79,0.08c6.5,0.28,11.29,1.3,14.42,3.08c3.71,2.11,5.57,5.37,5.57,9.78c0,4.01-1.45,7.17-4.36,9.48
		c-2.91,2.31-7.27,3.46-13.09,3.46c-7.45,0-14.62-2.26-21.57-6.75l-17.73,17.71c10.89,9.36,24.38,14.02,40.51,14.02
		c13.84,0,24.68-3.31,32.51-9.93c7.83-6.62,11.74-15.55,11.74-26.79C133.43,432.84,130.77,425.62,125.45,420.2z"/>
</g>
<g>
	<g>
		<path class="st1" d="M115.5,472.95c-8.8-3.75-15.72-8.87-20.76-15.36l14.27-16.65c4.33,4.76,9.66,8.47,16,11.14
			c6.34,2.67,13.05,4,20.11,4c6.2,0,10.99-1.04,14.38-3.14c3.39-2.09,5.08-4.94,5.08-8.54c0-2.88-1.19-5.3-3.57-7.24
			c-2.38-1.95-6.31-3.57-11.79-4.87l-17.95-4.11c-11.25-2.59-19.5-6.49-24.76-11.68c-5.27-5.19-7.89-11.68-7.89-19.47
			c0-10.38,4.07-18.74,12.22-25.09c8.14-6.34,19.21-9.52,33.2-9.52c9.66,0,18.42,1.55,26.28,4.65c7.86,3.1,14.17,7.39,18.92,12.87
			l-14.06,17.09c-9.37-8.07-19.97-12.11-31.79-12.11c-6.06,0-10.63,1.01-13.73,3.03c-3.1,2.02-4.65,4.76-4.65,8.22
			c0,2.74,1.15,4.94,3.46,6.6c2.3,1.66,6.27,3.14,11.89,4.43l19.03,4.54c11.25,2.45,19.32,6.24,24.22,11.36
			c4.9,5.12,7.35,11.64,7.35,19.57c0,11.1-4.08,19.86-12.22,26.28c-8.15,6.42-19.43,9.62-33.85,9.62
			C134.1,478.57,124.29,476.7,115.5,472.95z"/>
	</g>
</g>
<path class="st2" d="M125.01,452.08c-6.35-2.67-11.68-6.38-16-11.14l-5.41,6.31c-0.6,0.95-1.32,1.83-2.23,2.6l-6.64,7.75
	c5.03,6.47,11.92,11.57,20.68,15.31c2.27-1.22,4.37-2.63,6.28-4.25c4.69-3.97,7.94-8.78,9.82-14.41
	C129.31,453.66,127.13,452.97,125.01,452.08z"/>
<path class="st2" d="M98.63,397.03c0,7.78,2.63,14.27,7.89,19.47c5.17,5.1,13.25,8.94,24.21,11.54c-1.3-2.93-3.04-5.55-5.28-7.84
	c-5.32-5.42-12.79-8.73-22.42-9.93l25.36-25.38v-20.84c-6.86,1.53-12.72,4.15-17.54,7.9C102.7,378.29,98.63,386.65,98.63,397.03z"/>
<g>
	<path d="M265.91,418.32c1.4,1.28,2.11,3.03,2.11,5.27c0,1.68-0.4,3.14-1.21,4.38c-0.8,1.24-1.94,2.2-3.42,2.88
		c-1.48,0.68-3.24,1.02-5.27,1.02c-1.98,0-3.78-0.33-5.4-1c-1.62-0.66-3.02-1.65-4.2-2.95l2.71-3.16c1.91,1.91,4.18,2.86,6.81,2.86
		c1.7,0,3-0.38,3.89-1.13c0.89-0.75,1.34-1.78,1.34-3.08c0-1.38-0.57-2.41-1.69-3.08c-1.13-0.68-3-1.02-5.6-1.02h-1.35v-3.01
		l6.73-7.11h-11.4V405h16.97v3.8l-6.96,7.3C262.53,416.3,264.51,417.04,265.91,418.32z"/>
	<path d="M305.23,430.28c-1.93-1.05-3.34-2.51-4.21-4.36l3.46-2.48c0.78,1.33,1.84,2.35,3.18,3.07c1.34,0.72,2.86,1.07,4.57,1.07
		c1.66,0,2.93-0.33,3.84-0.98c0.9-0.65,1.35-1.53,1.35-2.63c0-0.85-0.31-1.55-0.92-2.09c-0.61-0.54-1.64-0.98-3.07-1.33l-4.25-1.02
		c-2.46-0.58-4.31-1.49-5.55-2.73c-1.24-1.24-1.86-2.79-1.86-4.65c0-1.5,0.39-2.83,1.19-3.99c0.79-1.15,1.93-2.06,3.42-2.71
		c1.49-0.65,3.24-0.98,5.25-0.98c2.36,0,4.42,0.43,6.19,1.3c1.77,0.86,3.04,2.04,3.82,3.52l-3.42,2.52c-0.73-1-1.66-1.76-2.78-2.28
		c-1.13-0.51-2.42-0.77-3.87-0.77c-1.58,0-2.8,0.29-3.65,0.88c-0.85,0.59-1.28,1.4-1.28,2.43c0,0.78,0.31,1.43,0.92,1.95
		c0.61,0.53,1.67,0.97,3.18,1.32l4.33,1.01c2.48,0.6,4.31,1.51,5.47,2.73c1.17,1.22,1.75,2.77,1.75,4.65c0,1.6-0.4,3.02-1.21,4.25
		c-0.8,1.23-1.97,2.18-3.5,2.86c-1.53,0.68-3.36,1.02-5.49,1.02C309.44,431.86,307.16,431.34,305.23,430.28z"/>
	<path d="M375.09,407.22c1.63,1.48,2.44,3.59,2.44,6.32c0,2.76-0.81,4.87-2.43,6.34c-1.62,1.47-3.97,2.2-7.05,2.2h-6.17v9.25h-4.78
		V405h10.95C371.12,405,373.46,405.74,375.09,407.22z M371.42,416.74c0.74-0.68,1.11-1.74,1.11-3.2c0-1.45-0.37-2.51-1.11-3.16
		c-0.74-0.65-1.96-0.98-3.67-0.98h-5.87v8.35h5.87C369.46,417.76,370.68,417.42,371.42,416.74z"/>
	<path d="M431.41,427.01v4.33h-19V405h18.62v4.33h-13.88v6.58h13.05v4.29h-13.05v6.81H431.41z"/>
	<path d="M483.29,425.09h-11.51l-2.33,6.25h-5L474.79,405h5.46l10.38,26.34h-5L483.29,425.09z M481.75,420.99l-4.21-11.29
		l-4.22,11.29H481.75z"/>
	<path d="M532.58,420.32h-3.2v11.02h-4.78V405h4.78v10.91h3.35l8.54-10.91h5.68l-10.46,13.17l10.84,13.17h-5.83L532.58,420.32z"/>
</g>
</svg>
