<svg xmlns="http://www.w3.org/2000/svg" width="14" height="20" viewBox="0 0 14 20" fill="none">
<script xmlns=""/><g clip-path="url(#clip0)">
<path d="M0.525286 13.0182C0.383351 10.4454 0.970963 7.9465 2.19273 6.31272C2.29796 6.79108 2.47186 7.19861 2.70443 7.55031C3.10319 8.15331 3.64533 8.54752 4.19554 8.85483L5.13409 9.37904L4.93029 8.32351C4.78311 7.56123 4.90091 6.4378 5.48506 5.11731L5.48592 5.11534C6.26381 3.33621 7.85866 2.17653 9.31665 1.45462C10.0087 1.11195 10.6555 0.875195 11.1416 0.721661C11.0523 1.04556 10.9551 1.44283 10.8714 1.88797C10.6481 3.07476 10.5105 4.6549 10.9217 6.09784L10.9217 6.09785L10.9235 6.10375C11.1945 7.012 11.6591 7.99931 12.0467 8.74657C12.2421 9.12313 12.4209 9.44461 12.5511 9.67227C12.6163 9.78618 12.6694 9.87681 12.7064 9.93934C12.7249 9.97061 12.7395 9.99487 12.7495 10.0115L12.7574 10.0246C13.2304 10.9179 13.5015 11.9571 13.5015 13.0458C13.5015 16.6192 10.6542 19.5 7.13638 19.5C3.61836 19.5 0.708808 16.6139 0.5254 13.0203L0.525286 13.0182Z" stroke="#070707" stroke-linecap="round"/>
</g>
<defs>
<clipPath id="clip0">
<rect width="14" height="20" fill="white"/>
</clipPath>
</defs>
<script xmlns=""/></svg>